<mxfile host="app.diagrams.net" modified="2023-11-24T18:30:41.600Z" agent="Mozilla/5.0 (Windows NT 10.0; Win64; x64; rv:120.0) Gecko/20100101 Firefox/120.0" etag="j2L-r1Vs2QX4kK_IeDbZ" version="22.1.4" type="github">
  <diagram name="Page-1" id="77DxSiG43ZZW7zqOG3Tx">
    <mxGraphModel dx="1434" dy="774" grid="1" gridSize="10" guides="1" tooltips="1" connect="1" arrows="1" fold="1" page="1" pageScale="1" pageWidth="827" pageHeight="1169" math="0" shadow="0">
      <root>
        <mxCell id="0" />
        <mxCell id="1" parent="0" />
        <mxCell id="xfIXeCBis3EV-0ErF68D-1" value="Visiteur" style="shape=umlActor;verticalLabelPosition=bottom;verticalAlign=top;html=1;outlineConnect=0;" parent="1" vertex="1">
          <mxGeometry x="100" y="130" width="30" height="60" as="geometry" />
        </mxCell>
        <mxCell id="xfIXeCBis3EV-0ErF68D-4" value="Admin" style="shape=umlActor;verticalLabelPosition=bottom;verticalAlign=top;html=1;outlineConnect=0;" parent="1" vertex="1">
          <mxGeometry x="100" y="310" width="30" height="60" as="geometry" />
        </mxCell>
        <mxCell id="xfIXeCBis3EV-0ErF68D-6" value="Elfes" style="shape=umlActor;verticalLabelPosition=bottom;verticalAlign=top;html=1;outlineConnect=0;" parent="1" vertex="1">
          <mxGeometry x="100" y="500" width="30" height="60" as="geometry" />
        </mxCell>
        <mxCell id="xfIXeCBis3EV-0ErF68D-9" value="Se connecter" style="ellipse;whiteSpace=wrap;html=1;" parent="1" vertex="1">
          <mxGeometry x="560" y="330" width="120" height="80" as="geometry" />
        </mxCell>
        <mxCell id="xfIXeCBis3EV-0ErF68D-10" value="Ecrire lettre" style="ellipse;whiteSpace=wrap;html=1;" parent="1" vertex="1">
          <mxGeometry x="200" y="40" width="80" height="50" as="geometry" />
        </mxCell>
        <mxCell id="xfIXeCBis3EV-0ErF68D-11" value="Contacter l&#39;admin" style="ellipse;whiteSpace=wrap;html=1;" parent="1" vertex="1">
          <mxGeometry x="290" y="90" width="80" height="50" as="geometry" />
        </mxCell>
        <mxCell id="xfIXeCBis3EV-0ErF68D-12" value="Déposer un avis" style="ellipse;whiteSpace=wrap;html=1;" parent="1" vertex="1">
          <mxGeometry x="334" y="150" width="80" height="50" as="geometry" />
        </mxCell>
        <mxCell id="xfIXeCBis3EV-0ErF68D-13" value="Consulter la salle aux cadeaux" style="ellipse;whiteSpace=wrap;html=1;" parent="1" vertex="1">
          <mxGeometry x="234" y="210" width="100" height="70" as="geometry" />
        </mxCell>
        <mxCell id="oW2sHTHqcY9tKya_I0AO-1" value="Gérer les cadeaux (crud)" style="ellipse;whiteSpace=wrap;html=1;" vertex="1" parent="1">
          <mxGeometry x="230" y="330" width="100" height="70" as="geometry" />
        </mxCell>
        <mxCell id="oW2sHTHqcY9tKya_I0AO-2" value="" style="endArrow=none;html=1;rounded=0;entryX=0.5;entryY=1;entryDx=0;entryDy=0;exitX=0;exitY=1;exitDx=0;exitDy=0;" edge="1" parent="1" source="xfIXeCBis3EV-0ErF68D-11" target="xfIXeCBis3EV-0ErF68D-10">
          <mxGeometry width="50" height="50" relative="1" as="geometry">
            <mxPoint x="390" y="460" as="sourcePoint" />
            <mxPoint x="440" y="410" as="targetPoint" />
            <Array as="points">
              <mxPoint x="130" y="170" />
            </Array>
          </mxGeometry>
        </mxCell>
        <mxCell id="oW2sHTHqcY9tKya_I0AO-3" value="" style="endArrow=none;html=1;rounded=0;" edge="1" parent="1" source="xfIXeCBis3EV-0ErF68D-13">
          <mxGeometry width="50" height="50" relative="1" as="geometry">
            <mxPoint x="80" y="220" as="sourcePoint" />
            <mxPoint x="130" y="170" as="targetPoint" />
          </mxGeometry>
        </mxCell>
        <mxCell id="oW2sHTHqcY9tKya_I0AO-4" value="" style="endArrow=none;html=1;rounded=0;entryX=0;entryY=0.5;entryDx=0;entryDy=0;" edge="1" parent="1" target="xfIXeCBis3EV-0ErF68D-12">
          <mxGeometry width="50" height="50" relative="1" as="geometry">
            <mxPoint x="130" y="170" as="sourcePoint" />
            <mxPoint x="180" y="120" as="targetPoint" />
          </mxGeometry>
        </mxCell>
        <mxCell id="oW2sHTHqcY9tKya_I0AO-5" value="" style="endArrow=none;html=1;rounded=0;exitX=0;exitY=0.5;exitDx=0;exitDy=0;" edge="1" parent="1" source="oW2sHTHqcY9tKya_I0AO-1">
          <mxGeometry width="50" height="50" relative="1" as="geometry">
            <mxPoint x="243" y="392.5" as="sourcePoint" />
            <mxPoint x="130" y="337.5" as="targetPoint" />
          </mxGeometry>
        </mxCell>
        <mxCell id="oW2sHTHqcY9tKya_I0AO-7" value="" style="endArrow=none;dashed=1;html=1;dashPattern=1 3;strokeWidth=2;rounded=0;" edge="1" parent="1">
          <mxGeometry width="50" height="50" relative="1" as="geometry">
            <mxPoint x="330" y="370" as="sourcePoint" />
            <mxPoint x="570" y="370" as="targetPoint" />
          </mxGeometry>
        </mxCell>
        <mxCell id="oW2sHTHqcY9tKya_I0AO-8" value="Include" style="text;html=1;align=center;verticalAlign=middle;resizable=0;points=[];autosize=1;strokeColor=none;fillColor=none;" vertex="1" parent="1">
          <mxGeometry x="380" y="338" width="60" height="30" as="geometry" />
        </mxCell>
      </root>
    </mxGraphModel>
  </diagram>
</mxfile>
